<?xml version="1.0" standalone="no"?>
<!DOCTYPE svg PUBLIC "-//W3C//DTD SVG 20010904//EN"
 "http://www.w3.org/TR/2001/REC-SVG-20010904/DTD/svg10.dtd">
<svg version="1.0" xmlns="http://www.w3.org/2000/svg"
 width="656.000000pt" height="656.000000pt" viewBox="0 0 656.000000 656.000000"
 preserveAspectRatio="xMidYMid meet">
<metadata>
Created by potrace 1.14, written by Peter Selinger 2001-2017
</metadata>
<g transform="translate(0.000000,656.000000) scale(0.100000,-0.100000)"
fill="#000000" stroke="none">
<path d="M3069 6556 c-2 -2 -38 -6 -79 -9 -100 -9 -235 -26 -288 -38 -23 -5
-59 -12 -80 -15 -188 -28 -523 -143 -782 -267 -131 -63 -453 -255 -480 -286
-3 -3 -30 -25 -61 -48 -432 -321 -798 -786 -1026 -1303 -47 -107 -138 -360
-148 -410 -2 -12 -7 -30 -10 -40 -18 -56 -74 -321 -80 -380 -3 -25 -7 -56 -10
-70 -19 -98 -27 -534 -13 -706 9 -96 35 -285 48 -334 5 -19 11 -48 14 -65 3
-16 17 -73 31 -125 14 -52 27 -105 30 -117 19 -81 120 -342 188 -483 118 -245
312 -543 462 -710 159 -177 207 -225 375 -374 54 -48 240 -186 335 -248 440
-287 987 -476 1500 -516 180 -14 578 -7 685 12 14 3 45 7 70 10 103 13 268 46
360 72 30 9 62 18 70 19 65 14 302 100 423 153 244 107 591 320 758 466 19 17
53 46 75 64 142 121 339 332 450 482 27 36 51 67 54 70 4 3 40 57 82 120 298
456 477 971 526 1510 14 162 6 614 -13 705 -5 21 -12 72 -21 140 -3 22 -10 56
-14 75 -5 19 -12 49 -14 66 -30 175 -147 514 -254 733 -115 238 -311 538 -461
705 -237 264 -423 429 -656 583 -55 36 -111 73 -125 83 -24 15 -79 47 -183
104 -140 76 -449 203 -593 241 -30 8 -80 22 -111 30 -71 20 -222 52 -288 62
-27 4 -52 8 -55 8 -3 1 -36 5 -75 9 -38 5 -79 11 -90 13 -23 5 -521 13 -526 9z"/>
</g>
</svg>
