<svg width="100" height="100" viewBox="0 0 100 100" fill="none" xmlns="http://www.w3.org/2000/svg">
<rect width="100" height="100" rx="50" fill="white"/>
<path d="M42.0027 33.9973C42.002 32.501 41.5816 31.0348 40.7894 29.7654C39.9973 28.4959 38.865 27.474 37.5212 26.8158C36.1774 26.1575 34.6759 25.8893 33.1874 26.0415C31.6988 26.1937 30.2827 26.7603 29.1 27.677C27.9172 28.5936 27.0152 29.8235 26.4964 31.227C25.9776 32.6305 25.8627 34.1514 26.1648 35.617C26.467 37.0825 27.174 38.4339 28.2056 39.5178C29.2373 40.6017 30.5522 41.3745 32.001 41.7486V58.2514C30.1154 58.7383 28.4721 59.8961 27.379 61.5079C26.286 63.1198 25.8184 65.0749 26.0638 67.0069C26.3092 68.9388 27.2508 70.715 28.712 72.0023C30.1733 73.2897 32.0539 74 34.0014 74C35.9488 74 37.8295 73.2897 39.2907 72.0023C40.752 70.715 41.6935 68.9388 41.9389 67.0069C42.1843 65.0749 41.7167 63.1198 40.6237 61.5079C39.5307 59.8961 37.8873 58.7383 36.0017 58.2514V41.7486C37.7186 41.3027 39.2391 40.2998 40.3251 38.8971C41.411 37.4945 42.001 35.7712 42.0027 33.9973ZM38.002 66.0027C38.002 66.7939 37.7674 67.5674 37.3278 68.2253C36.8882 68.8833 36.2634 69.396 35.5324 69.6988C34.8013 70.0016 33.9969 70.0809 33.2209 69.9265C32.4448 69.7721 31.732 69.3911 31.1725 68.8316C30.613 68.2721 30.2319 67.5592 30.0776 66.7832C29.9232 66.0071 30.0024 65.2027 30.3052 64.4717C30.608 63.7407 31.1208 63.1159 31.7787 62.6763C32.4366 62.2367 33.2101 62.002 34.0014 62.002C35.0624 62.002 36.08 62.4235 36.8303 63.1738C37.5805 63.9241 38.002 64.9416 38.002 66.0027ZM34.0014 37.998C33.2101 37.998 32.4366 37.7634 31.7787 37.3238C31.1208 36.8842 30.608 36.2593 30.3052 35.5283C30.0024 34.7973 29.9232 33.9929 30.0776 33.2168C30.2319 32.4408 30.613 31.7279 31.1725 31.1684C31.732 30.6089 32.4448 30.2279 33.2209 30.0735C33.9969 29.9191 34.8013 29.9984 35.5324 30.3012C36.2634 30.604 36.8882 31.1168 37.3278 31.7747C37.7674 32.4326 38.002 33.2061 38.002 33.9973C38.002 35.0584 37.5805 36.0759 36.8303 36.8262C36.08 37.5765 35.0624 37.998 34.0014 37.998ZM68.0071 58.2514V48.9698C68.0117 47.1303 67.6517 45.3081 66.9479 43.6085C66.244 41.909 65.2103 40.3658 63.9064 39.0682L56.8327 31.997H64.0064C64.5369 31.997 65.0457 31.7862 65.4209 31.4111C65.796 31.036 66.0067 30.5272 66.0067 29.9966C66.0067 29.4661 65.796 28.9573 65.4209 28.5822C65.0457 28.2071 64.5369 27.9963 64.0064 27.9963H52.0044C51.4739 27.9963 50.9651 28.2071 50.5899 28.5822C50.2148 28.9573 50.0041 29.4661 50.0041 29.9966V41.9987C50.0041 42.5292 50.2148 43.038 50.5899 43.4131C50.9651 43.7882 51.4739 43.999 52.0044 43.999C52.5349 43.999 53.0437 43.7882 53.4188 43.4131C53.794 43.038 54.0047 42.5292 54.0047 41.9987V34.825L61.0759 41.8986C62.0079 42.8248 62.7469 43.9267 63.2499 45.1405C63.753 46.3543 64.0101 47.6559 64.0064 48.9698V58.2514C62.1208 58.7383 60.4774 59.8961 59.3844 61.5079C58.2914 63.1198 57.8238 65.0749 58.0692 67.0069C58.3146 68.9388 59.2561 70.715 60.7174 72.0023C62.1786 73.2897 64.0593 74 66.0067 74C67.9542 74 69.8348 73.2897 71.2961 72.0023C72.7573 70.715 73.6989 68.9388 73.9443 67.0069C74.1897 65.0749 73.7221 63.1198 72.6291 61.5079C71.536 59.8961 69.8927 58.7383 68.0071 58.2514ZM66.0067 70.0034C65.2155 70.0034 64.442 69.7687 63.7841 69.3291C63.1262 68.8895 62.6134 68.2647 62.3106 67.5337C62.0078 66.8027 61.9286 65.9983 62.0829 65.2222C62.2373 64.4461 62.6183 63.7333 63.1778 63.1738C63.7373 62.6143 64.4502 62.2333 65.2262 62.0789C66.0023 61.9245 66.8067 62.0037 67.5377 62.3065C68.2688 62.6094 68.8936 63.1221 69.3332 63.78C69.7728 64.4379 70.0074 65.2114 70.0074 66.0027C70.0074 67.0637 69.5859 68.0813 68.8356 68.8316C68.0854 69.5819 67.0678 70.0034 66.0067 70.0034Z" fill="#08D1D4"/>
</svg>
