<svg width="100" height="100" viewBox="0 0 100 100" fill="none" xmlns="http://www.w3.org/2000/svg">
<rect width="100" height="100" rx="50" fill="white"/>
<path d="M50 30C45.2533 30 40.6131 31.4076 36.6663 34.0447C32.7195 36.6819 29.6434 40.4302 27.8269 44.8156C26.0104 49.201 25.5351 54.0266 26.4612 58.6822C27.3872 63.3377 29.673 67.6141 33.0294 70.9706C36.3859 74.327 40.6623 76.6128 45.3178 77.5388C49.9734 78.4649 54.799 77.9896 59.1844 76.1731C63.5698 74.3566 67.3181 71.2805 69.9553 67.3337C72.5924 63.3869 74 58.7467 74 54C73.9927 47.637 71.4618 41.5368 66.9625 37.0375C62.4632 32.5382 56.363 30.0073 50 30ZM61.415 45.415L51.415 55.415C51.2292 55.6008 51.0086 55.7482 50.7658 55.8488C50.523 55.9493 50.2628 56.0011 50 56.0011C49.7372 56.0011 49.477 55.9493 49.2342 55.8488C48.9914 55.7482 48.7708 55.6008 48.585 55.415C48.3992 55.2292 48.2518 55.0086 48.1512 54.7658C48.0507 54.523 47.9989 54.2628 47.9989 54C47.9989 53.7372 48.0507 53.477 48.1512 53.2342C48.2518 52.9914 48.3992 52.7708 48.585 52.585L58.585 42.585C58.7708 42.3992 58.9914 42.2518 59.2342 42.1512C59.477 42.0506 59.7372 41.9989 60 41.9989C60.2628 41.9989 60.523 42.0506 60.7658 42.1512C61.0086 42.2518 61.2292 42.3992 61.415 42.585C61.6008 42.7708 61.7482 42.9914 61.8488 43.2342C61.9494 43.477 62.0011 43.7372 62.0011 44C62.0011 44.2628 61.9494 44.523 61.8488 44.7658C61.7482 45.0086 61.6008 45.2292 61.415 45.415ZM42 24C42 23.4696 42.2107 22.9609 42.5858 22.5858C42.9609 22.2107 43.4696 22 44 22H56C56.5304 22 57.0391 22.2107 57.4142 22.5858C57.7893 22.9609 58 23.4696 58 24C58 24.5304 57.7893 25.0391 57.4142 25.4142C57.0391 25.7893 56.5304 26 56 26H44C43.4696 26 42.9609 25.7893 42.5858 25.4142C42.2107 25.0391 42 24.5304 42 24Z" fill="#08D1D4"/>
</svg>
