<svg width="100" height="100" viewBox="0 0 100 100" fill="none" xmlns="http://www.w3.org/2000/svg">
<rect width="100" height="100" rx="50" fill="#F6F6F6"/>
<path d="M68.9815 35.3637L60.1178 26.5175C59.9531 26.3533 59.7575 26.223 59.5423 26.1342C59.3271 26.0454 59.0965 25.9998 58.8636 26H41.1364C40.1961 26 39.2943 26.3728 38.6293 27.0364C37.9644 27.7 37.5909 28.6 37.5909 29.5385V33.0769H34.0455C33.1051 33.0769 32.2033 33.4497 31.5384 34.1133C30.8735 34.7769 30.5 35.6769 30.5 36.6154V68.4615C30.5 69.4 30.8735 70.3 31.5384 70.9636C32.2033 71.6272 33.1051 72 34.0455 72H58.8636C59.8039 72 60.7057 71.6272 61.3706 70.9636C62.0356 70.3 62.4091 69.4 62.4091 68.4615V64.9231H65.9545C66.8949 64.9231 67.7967 64.5503 68.4616 63.8867C69.1265 63.2231 69.5 62.3231 69.5 61.3846V36.6154C69.5002 36.383 69.4545 36.1528 69.3655 35.938C69.2765 35.7233 69.146 35.5281 68.9815 35.3637ZM58.8636 68.4615H34.0455V36.6154H51.0393L58.8636 44.4243V63.1185C58.8636 63.1317 58.8636 63.1428 58.8636 63.1538C58.8636 63.1649 58.8636 63.176 58.8636 63.1892V68.4615ZM65.9545 61.3846H62.4091V43.6923C62.4093 43.4599 62.3636 43.2297 62.2746 43.015C62.1856 42.8002 62.0551 42.605 61.8906 42.4406L53.0269 33.5944C52.8622 33.4302 52.6666 33.2999 52.4514 33.2111C52.2362 33.1223 52.0056 33.0767 51.7727 33.0769H41.1364V29.5385H58.1302L65.9545 37.3474V61.3846ZM53.5455 54.3077C53.5455 54.7769 53.3587 55.2269 53.0262 55.5587C52.6938 55.8905 52.2429 56.0769 51.7727 56.0769H41.1364C40.6662 56.0769 40.2153 55.8905 39.8829 55.5587C39.5504 55.2269 39.3636 54.7769 39.3636 54.3077C39.3636 53.8385 39.5504 53.3885 39.8829 53.0567C40.2153 52.7249 40.6662 52.5385 41.1364 52.5385H51.7727C52.2429 52.5385 52.6938 52.7249 53.0262 53.0567C53.3587 53.3885 53.5455 53.8385 53.5455 54.3077ZM53.5455 61.3846C53.5455 61.8538 53.3587 62.3039 53.0262 62.6357C52.6938 62.9674 52.2429 63.1538 51.7727 63.1538H41.1364C40.6662 63.1538 40.2153 62.9674 39.8829 62.6357C39.5504 62.3039 39.3636 61.8538 39.3636 61.3846C39.3636 60.9154 39.5504 60.4654 39.8829 60.1336C40.2153 59.8018 40.6662 59.6154 41.1364 59.6154H51.7727C52.2429 59.6154 52.6938 59.8018 53.0262 60.1336C53.3587 60.4654 53.5455 60.9154 53.5455 61.3846Z" fill="#27D7D9"/>
</svg>
