<svg width="100" height="100" viewBox="0 0 100 100" fill="none" xmlns="http://www.w3.org/2000/svg">
<rect width="100" height="100" rx="50" fill="white"/>
<path d="M41.8333 31.2C40.9667 31.3334 40.3666 32.2 40.5667 33.0667C40.7 33.6001 40.7 34.2001 40.7 34.8001C40.7 40.0668 36.4333 44.4001 31.0999 44.4001C25.7666 44.4001 21.5666 40.0668 21.5666 34.8001C21.5666 29.5334 25.8332 25.2 31.1666 25.2C32.4333 25.2 33.7 25.4667 34.9 25.9334C35.7 26.2667 36.6333 25.8667 36.9666 25.0667C37.3 24.2667 36.9 23.3333 36.1 23C34.5 22.3333 32.8333 22 31.0999 22C24.0999 22 18.3665 27.7334 18.3665 34.8001C18.3665 41.8668 24.0999 47.6001 31.1666 47.6001C38.2333 47.6001 43.9667 41.8668 43.9667 34.8001C43.9667 34.0001 43.9 33.2001 43.7667 32.4667C43.5 31.6 42.7 31 41.8333 31.2Z" fill="#08D1D4"/>
<path d="M28.1664 31.7998C27.0331 30.1331 24.2331 31.7331 25.4331 33.3998C26.9664 35.5998 28.3664 37.9331 29.8997 40.1331C30.5664 41.1331 31.9664 41.1998 32.6331 40.1331C35.4331 35.5331 38.4331 31.1331 42.1665 27.1997C43.5665 25.7331 41.2998 23.4664 39.8998 24.9331C36.5664 28.3997 33.7664 32.3331 31.1664 36.3998C30.2331 34.8664 29.2331 33.3331 28.1664 31.7998Z" fill="#08D1D4"/>
<path d="M50.6334 27.8667H80.1002C80.9668 27.8667 81.7002 27.1334 81.7002 26.2667C81.7002 25.4 80.9668 24.6667 80.1002 24.6667H50.6334C49.7667 24.6667 49.0334 25.4 49.0334 26.2667C49.0334 27.1334 49.7667 27.8667 50.6334 27.8667Z" fill="#08D1D4"/>
<path d="M80.1002 33.2006H50.6334C49.7667 33.2006 49.0334 33.9339 49.0334 34.8006C49.0334 35.6673 49.7667 36.4006 50.6334 36.4006H80.1002C80.9668 36.4006 81.7002 35.6673 81.7002 34.8006C81.7002 33.9339 80.9668 33.2006 80.1002 33.2006Z" fill="#08D1D4"/>
<path d="M50.6334 44.8668H73.7001C74.5668 44.8668 75.3001 44.1334 75.3001 43.2668C75.3001 42.4001 74.5668 41.6668 73.7001 41.6668H50.6334C49.7667 41.6668 49.0334 42.4001 49.0334 43.2668C49.0334 44.1334 49.7667 44.8668 50.6334 44.8668Z" fill="#08D1D4"/>
<path d="M41.8332 61.5999C40.9666 61.7333 40.3666 62.5999 40.5666 63.4666C40.6999 63.9999 40.6999 64.5999 40.6999 65.1999C40.6999 70.4666 36.4332 74.8 31.0999 74.8C25.7665 74.8 21.5665 70.4666 21.5665 65.1999C21.5665 59.9333 25.8332 55.5999 31.1665 55.5999C32.4332 55.5999 33.6999 55.8666 34.8999 56.3332C35.6999 56.6666 36.6332 56.2666 36.9666 55.4666C37.2999 54.6666 36.8999 53.7332 36.0999 53.3999C34.4999 52.7332 32.8332 52.3999 31.0999 52.3999C24.0332 52.3999 18.2998 58.1332 18.2998 65.1999C18.2998 72.2666 24.0998 78 31.1665 78C38.2332 78 43.9666 72.2666 43.9666 65.1999C43.9666 64.3999 43.8999 63.5999 43.7666 62.8666C43.4999 61.9999 42.6999 61.3999 41.8332 61.5999Z" fill="#08D1D4"/>
<path d="M28.1664 62.1996C27.0331 60.533 24.2331 62.133 25.4331 63.7996C26.9664 65.9997 28.3664 68.333 29.8997 70.533C30.5664 71.533 31.9664 71.5997 32.6331 70.533C35.4331 65.933 38.4331 61.533 42.1665 57.5996C43.5665 56.1329 41.2998 53.8663 39.8998 55.3329C36.5664 58.7996 33.7664 62.733 31.1664 66.7997C30.2331 65.2663 29.2331 63.733 28.1664 62.1996Z" fill="#08D1D4"/>
<path d="M80.1002 55.133H50.6334C49.7667 55.133 49.0334 55.8663 49.0334 56.733C49.0334 57.5996 49.7667 58.333 50.6334 58.333H80.1002C80.9668 58.333 81.7002 57.5996 81.7002 56.733C81.7002 55.8663 80.9668 55.133 80.1002 55.133Z" fill="#08D1D4"/>
<path d="M80.1002 63.6005H50.6334C49.7667 63.6005 49.0334 64.3338 49.0334 65.2005C49.0334 66.0671 49.7667 66.8005 50.6334 66.8005H80.1002C80.9668 66.8005 81.7002 66.0671 81.7002 65.2005C81.7002 64.3338 80.9668 63.6005 80.1002 63.6005Z" fill="#08D1D4"/>
<path d="M73.7001 72.133H50.6334C49.7667 72.133 49.0334 72.8664 49.0334 73.7331C49.0334 74.5997 49.7667 75.3331 50.6334 75.3331H73.7001C74.5668 75.3331 75.3001 74.5997 75.3001 73.7331C75.3001 72.7997 74.5668 72.133 73.7001 72.133Z" fill="#08D1D4"/>
</svg>
